<svg width="16" height="17" viewBox="0 0 16 17" fill="none" xmlns="http://www.w3.org/2000/svg">
<path d="M13.3333 3.16669H2.66666C1.93333 3.16669 1.33333 3.76669 1.33333 4.50002V12.5C1.33333 13.2334 1.93333 13.8334 2.66666 13.8334H13.3333C14.0667 13.8334 14.6667 13.2334 14.6667 12.5V4.50002C14.6667 3.76669 14.0667 3.16669 13.3333 3.16669ZM13.0667 6.00002L8.70666 8.72669C8.27333 9.00002 7.72666 9.00002 7.29333 8.72669L2.93333 6.00002C2.86648 5.96249 2.80794 5.91179 2.76125 5.85099C2.71457 5.79018 2.6807 5.72054 2.66171 5.64627C2.64272 5.572 2.639 5.49464 2.65077 5.41889C2.66254 5.34314 2.68955 5.27056 2.73018 5.20555C2.77081 5.14055 2.82421 5.08446 2.88715 5.04068C2.95008 4.99691 3.02124 4.96636 3.09633 4.95089C3.17141 4.93541 3.24885 4.93533 3.32396 4.95065C3.39908 4.96597 3.4703 4.99638 3.53333 5.04002L8 7.83335L12.4667 5.04002C12.5297 4.99638 12.6009 4.96597 12.676 4.95065C12.7511 4.93533 12.8286 4.93541 12.9037 4.95089C12.9787 4.96636 13.0499 4.99691 13.1128 5.04068C13.1758 5.08446 13.2292 5.14055 13.2698 5.20555C13.3104 5.27056 13.3375 5.34314 13.3492 5.41889C13.361 5.49464 13.3573 5.572 13.3383 5.64627C13.3193 5.72054 13.2854 5.79018 13.2387 5.85099C13.192 5.91179 13.1335 5.96249 13.0667 6.00002Z" fill="white"/>
</svg>
