<svg width="16" height="17" viewBox="0 0 16 17" fill="none" xmlns="http://www.w3.org/2000/svg">
<path d="M2.26666 14.0999L13.9 9.11327C14.0203 9.06204 14.1228 8.97658 14.1949 8.86754C14.267 8.75849 14.3054 8.63065 14.3054 8.49994C14.3054 8.36922 14.267 8.24139 14.1949 8.13234C14.1228 8.02329 14.0203 7.93783 13.9 7.8866L2.26666 2.89994C2.16593 2.856 2.05584 2.83783 1.94633 2.84707C1.83683 2.85631 1.73134 2.89267 1.63939 2.95286C1.54745 3.01306 1.47193 3.0952 1.41966 3.19187C1.3674 3.28854 1.34002 3.3967 1.33999 3.5066L1.33333 6.57994C1.33333 6.91327 1.57999 7.19994 1.91333 7.23994L11.3333 8.49994L1.91333 9.75327C1.57999 9.79994 1.33333 10.0866 1.33333 10.4199L1.33999 13.4933C1.33999 13.9666 1.82666 14.2933 2.26666 14.0999Z" fill="white"/>
</svg>
