<svg width="16" height="17" viewBox="0 0 16 17" fill="none" xmlns="http://www.w3.org/2000/svg">
<path d="M12.82 10.6733L11.1267 10.48C10.9276 10.4566 10.7257 10.4786 10.5364 10.5445C10.347 10.6103 10.175 10.7182 10.0333 10.86L8.80667 12.0867C6.91413 11.1241 5.37585 9.58586 4.41333 7.69332L5.64667 6.45999C5.93333 6.17332 6.07333 5.77332 6.02667 5.36665L5.83333 3.68665C5.79554 3.36144 5.63946 3.06148 5.39482 2.84389C5.15019 2.62629 4.83407 2.50626 4.50667 2.50665H3.35333C2.6 2.50665 1.97333 3.13332 2.02 3.88665C2.37333 9.57999 6.92667 14.1267 12.6133 14.48C13.3667 14.5267 13.9933 13.9 13.9933 13.1467V11.9933C14 11.32 13.4933 10.7533 12.82 10.6733Z" fill="white"/>
</svg>
